<svg id="Layer_1" data-name="Layer 1" xmlns="http://www.w3.org/2000/svg" viewBox="0 0 876.93 876.93"><defs><style>.cls-1{fill:#fff;}.cls-2{fill:#231f20;}</style></defs><title>octoprint</title><polygon class="cls-1" points="620.09 0 256.85 0 0 256.85 0 620.09 256.85 876.93 620.09 876.93 876.93 620.09 876.93 256.85 620.09 0"/><path class="cls-2" d="M837.36,259.94c.09.91.09,1.9.09,2.81a115.93,115.93,0,0,1-34,82.33c-12.31,12.22-33.53,28.33-59,44.26-12.14,7.52-25.27,15.11-38.73,22.38,0,0,10.66,52,10.66,87.28s-48.56,69.7-51.45,90.51c-2.06,16.27,6.77,29.81,36.09,18,8.92-3.72,39.06-13.54,64.66,12.06,6,6,6.93,13.79,2.39,20.31a15.19,15.19,0,0,1-21.3,3.8c-21.47-12.64-29.48-2.15-42.12,4.79-55.16,29.73-85.8-19.16-89.68-40.05-4.29-24-.24-31.79,40.13-107.6,0,0,3.31-6.77-2.72-14.62-6.77,24.61-90,135.68-71.18,177.87,22.21,49.8,34.93,70.44,25.52,111.65a15.51,15.51,0,0,1-16.6,11.72,15.31,15.31,0,0,1-13.71-16.84c.25-.17.74-6.36.58-14.12,0-26.1-47.57-67.05-47.57-115.11-1-31.71,40.22-126.76,41.87-130.72-3.3,4.46-103.88,141.45-109.58,149.46-9.33,13.21-21.55,25.1,4.54,99.42A15.56,15.56,0,0,1,457,778.28a15.38,15.38,0,0,1-19.9-8.84c-21.64-56.64-38.4-83.4-2.4-140.71,1.24-2,99-157.72,127.33-203-45.17,28.32-201,126-203,127.17-57.23,36.08-84.07,19.48-140.63-2.32a15.29,15.29,0,0,1-8.84-19.73,15.58,15.58,0,0,1,18.83-9.25c74.32,26.09,86.05,13.87,99.42,4.54,8-5.61,145-106.27,149.38-109.58-3.88,1.65-98.92,42.69-130.63,41.79-48.31,0-89.1-47.57-115.11-47.57a118.15,118.15,0,0,0-14.21.58,15.38,15.38,0,0,1-16.93-13.63,15.66,15.66,0,0,1,11.81-16.59c41.29-9.33,61.94,3.3,111.65,25.51,42.19,18.83,153.26-64.41,178-71.26-7.84-6-14.7-2.56-14.7-2.56-75.89,40.3-83.48,44.43-107.6,40.05-21-3.88-69.86-34.6-40-89.6,6.85-12.63,17.17-20.81,4.7-42.19a15.3,15.3,0,0,1,3.8-21.39c6.61-4.46,14.12-3.72,20.4,2.56C393.68,247.72,384,278,380.38,286.86c-11.8,29.32,1.57,38.24,18,35.93,20.64-2.81,55.08-51.2,90.5-51.2,35.18,0,87.28,10.57,87.28,10.57,7.19-13.54,14.62-26.51,22.3-38.65,16-25.68,32.12-47,44.18-59.12A116.45,116.45,0,0,1,725,150.28c.91,0,1.9,0,2.81.09L663.71,86.29H336.29L104.74,317.83V645.25L336.29,876.71H663.71L895.25,645.25V317.83Z" transform="translate(-61.53 -43.03)"/></svg>